<?xml version="1.0" encoding="utf-8"?>
<!-- Generator: Adobe Illustrator 19.0.0, SVG Export Plug-In . SVG Version: 6.00 Build 0)  -->
<svg version="1.1" id="layer" xmlns="http://www.w3.org/2000/svg" xmlns:xlink="http://www.w3.org/1999/xlink" x="0px" y="0px"
	 viewBox="-153 -46 652 652" style="enable-background:new -153 -46 652 652;" xml:space="preserve">
<style type="text/css">
	.st0{fill:#00418D;}
</style>
<path class="st0" d="M468.8,239.5c-0.4-21.8-15.8-37-16-57.8c2.1-1.4,4.7-3.4,6.4-5.3c2.2-2.8,4.6-6.7,2.4-10.8
	c-1.3-1.2-3.3-1.8-5.1-1.4c-5.4,1.8-7.1,7.4-9.1,11.4L416,214.6c-11.3-1.8-22.6,0.5-30.4,9.2c-9.5,9.4-10.8,25.4-6.2,37.5
	l-10.1,10.3c-6.9,5.9-14.7,14.3-22.1,16.1c-2.6,0.5-5-0.2-6.2-2.4c-1.9-4.9,1-10,2.6-14.4L389,160.3l68.1-8.4l8.4-14.9l-67.7,0
	l6.5-14.6l-18.6,1l-6,12.8H131.3l6.3,5.8c12.1,11.4,14.8,29.7,11.7,44.9l102.6-11.3l114.8-12.4c-4.8,9.6-9.4,19.5-14.6,28.8
	l-4.3-1.7c-21.6-10.3-48.6-2.6-65.9,9.2c-23.7-9.2-48.9,0.8-68.1,13.3c-1.8-6.2-6.9-12.8-13.7-14.4c-15.8-3.9-31.7,8.4-39.9,14.6
	c-2.1-1.5-5.3-3.2-7.7-4.1c-6.6-2.6-14.2-1.4-20.7,0.9c4.5-7.3,8.4-15,10.1-23.5c3-18-4.2-35.7-19.1-46.9c4.4-5.2,10.5-7.8,15.6-12
	c0,0,1.7-0.9,1-2.6c-0.6-1.5-1.3-1-2.2-1.1c-8.7,1.5-19.4,7.7-23.5,9.9c-20.8-8.3-45.5-10.3-68.3-6.5c-35.2,6.8-68.1,23-92.1,53
	c-9.9,13.1-19,31.7-9.6,47.8c6.6,9,16.6,14.3,27.9,12.2c7.4-1.7,13.5-8.3,16.5-15.1c-6.1-1-13.7-4.3-15.2-11.3
	c-2.1-15.3,5.6-27.9,14.4-39.4c21.6-24,49.5-36.2,80.3-38c10.7,0.1,21.7,0.5,29,7.4l-17.3,11c-24.2,17.7-40,43.9-55.5,67.9
	c-8.4-1-17.2-0.7-24.4,3.2c-4.2,2.7-7.3,7-7.5,12c-0.2,8.2,7.2,14.6,14,18.2l-2,4.8l-19.8,43.2c-3.1,6.2-5.9,12.7-8.6,17.7
	c-5.6-2.4-12.5-4.4-19.1-3.3c-13.4,1.1-26.3,13-30.2,25.7c-6,15.7-1.8,33.3,8.8,45.6c-5.9,8.2-14.9,13.9-24,16.9
	c-6.1,1.4-14.6,3.6-20.2-0.7c4.4-0.7,8.6-2.4,11.6-5.8c3.4-3.2,5-8.6,4-12.4c-1.2-5.3-6.5-10.6-11.9-11.8
	c-5.9-1.8-12.7-0.7-17.4,2.7c-6.5,4.2-8.8,11.6-7.9,19.3c1,8.9,9.9,15.5,17.6,18.4c22.3,7.6,45-4.4,60.8-14.6
	c9.1,5.2,16.6,8.8,25.9,11.1c34.6,8.7,69.1-3.3,91.8-31c24.6-28.3,30.1-73.1,15-107.1c-2.6-6.5-5.7-13-8.8-19
	c6.9-2.5,13.3-5.8,19.9-9c12.8-5.6,23.2-15.9,35.1-24c7-3.1,17-4.8,24-0.6c-16.4,16.5-28.9,35.2-37.7,55.4
	c-7.6,19.6-14.3,43.9-3.6,64.2c4.2,7.2,12.5,11.1,20.4,10.3c28.7-3.1,49.6-31.6,63.4-54.8c11.6-22.3,23.1-45,23.3-71.5
	c14.2-10.9,29.8-19.7,48.5-18.9c-20.5,16.3-35.4,38.4-46.1,60.5c-7.4,17-13.2,42.4,1.7,57.9c5.9,6.6,15.7,7.5,23.8,5
	c29.1-9.9,49.3-44.2,55.9-74c2.9-16.1,2.6-34.9-9.4-47.7c3.5-2.7,5.7-4,7.8-5.4c14-8.9,36-9.8,49.9-0.9l-30.8,68.5
	c-3.1,7.9-6.9,17.8-1.8,26c2.9,5.3,8.6,7.6,13.8,8.9c24,2.1,40.3-18.1,56.2-34.3c7.2,10.8,19.2,15.8,31.9,16.1v0.4
	c-2,4.1-5,6.9-8.5,9.5c-8.1,5.9-16.3,8.2-25.1,10.8l-146,34.9L143,366.5c-13.6,3.9-28.5,13.5-34.3,27.6c-4.2,10.2-5,25.1,2.8,33.8
	c2-3.2,5.5-5.8,8.8-7.6L378.5,340c10.4-3.3,20.8-6.3,30.2-12.2c16.5-9.5,21-27.6,28.1-42.8c0,0,0.5-0.3,1.2-0.6
	c3.9-1.9,10.6-6.7,10.6-6.7C461.3,268.5,468.3,254.1,468.8,239.5 M445.1,254.6c-0.5-14.7-6.5-27.9-19.1-37.1l19.3-26.8
	c3.4,16.9,8.7,35.8,3.4,53.6C447.6,248.3,446.7,251.2,445.1,254.6 M429.9,269.6c-6,5.4-15,7-22.9,5.1c-5.9-1.5-11.4-5.3-15.2-10.8
	c8.9-12.5,18.7-24.5,27.7-37c11.2,6.9,16.3,19.4,14.3,32.1C432.7,262.6,431.7,266.2,429.9,269.6 M387.7,251.3
	c-3.2-7-0.8-16.7,5.1-22.7c4-4.1,10.3-5.2,15.7-4.1C401.5,233.1,394.5,242.4,387.7,251.3 M187.5,259c-9.5,22.2-21.8,43.3-38.2,62.5
	c-5.6,5.7-13,13.9-20.1,12.8c-2.3-0.4-4.4-1.6-5.6-3.8c-4.6-10.4,2-24.1,5.8-32.6c12.7-28.6,30.9-55.7,54.4-79.3
	c3.1-2.5,6.5-6.5,10.7-4.1c4.4,2.5,3.1,8.4,3.1,12.7C195.6,238.4,191.5,248.7,187.5,259 M76.3,236.1l-14.1,7.8
	c-3.5-4.3-7.6-7.1-12.7-10.3c14.3-25.2,28.2-50.6,48.8-73.3l7.2-6.5c6.2,7.8,6.7,18.7,6.2,29.4C109.1,204.6,95.4,224.2,76.3,236.1
	 M22.2,379.4c-16.7,11.5-39,16.2-59.6,10c6.9-7.8,23.2-27.5,32-42.7c16.6-27,29.2-55.7,42.2-84.2c5.9-0.1,13.7-0.9,20.1-2.6
	c8.8,15.5,8.5,38.7,5,56.5C56.8,340.7,43.6,363.9,22.2,379.4 M44.2,244.1l5.8,3.4l-8.3,1.1L44.2,244.1z M9.9,245.5
	c-2.8-0.7-6.6-1.7-7.9-5.1c-0.8-1.8-1.1-3.5,0.3-5.7c2.3-2.9,5.5-3.4,9.1-2.8c3.6,0.7,5,1.6,5,1.6L9.9,245.5z M-54.6,377.5l-1,1.1
	c-5.7-7-9.1-15.3-7.3-24.7c1.2-7,4.5-13.6,10.3-18.5c-0.3,8.9,3.3,17.1,10.4,22.7C-45.7,364.9-50,371.1-54.6,377.5 M262.2,294.8
	c-5.3,8.4-13.1,18.9-20.9,22.1c-3.1,1.3-8,1.8-10.6-0.9c-3.5-5.3-2-12.5-1.4-18.6c5.2-24.6,18.9-45.7,34.2-66.2
	c0,0,13.2-16.3,14.6-15c6.4,5.8,6.7,20.2,2.7,36.6C277,267.7,269.6,281.4,262.2,294.8"/>
</svg>
