<?xml version="1.0" encoding="UTF-8" standalone="no"?> <svg width="24" height="24" viewBox="0 0 24 24" color="white" fill="none" xmlns="http://www.w3.org/2000/svg">
<path fill-rule="evenodd" clip-rule="evenodd" d="M10.5543 0.653938C11.4545 0.158811 12.5455 0.158811 13.4457 0.653939L21.4458 5.05395C21.7302 5.21036 21.983 5.40928 22.1977 5.6403C22.7055 6.1868 23.0001 6.91316 23.0001 7.6826V16.3175C23.0001 17.4116 22.4045 18.4189 21.4458 18.9462L13.4457 23.3462C12.5455 23.8413 11.4545 23.8413 10.5543 23.3462L2.55414 18.9462C1.59548 18.4189 0.999878 17.4116 0.999878 16.3175V7.68261C0.999878 6.91309 1.29456 6.18668 1.80245 5.64017C2.01709 5.4092 2.26981 5.21033 2.55414 5.05395L10.5543 0.653938ZM12.4819 2.40637C12.1818 2.24133 11.8182 2.24133 11.5181 2.40637L4.44132 6.29855L12 10.8339L19.5588 6.29861L12.4819 2.40637ZM21.0001 7.76619L13 12.5662V21.3088L20.482 17.1937C20.8016 17.018 21.0001 16.6822 21.0001 16.3175V7.76619ZM11 21.3088V12.5662L2.99988 7.76606V16.3175C2.99988 16.6822 3.19841 17.018 3.51796 17.1937L11 21.3088Z" fill="#293644"/>
</svg>
